PathFileType	4	(X/Y/Z)	Run_400 01
DataRate	CameraRate	NumFrames	NumMarkers	Units	OrigDataRate	OrigDataStartFrame	OrigNumFrames
120	120	6	41	mm	120	133	125
Frame#	Time	LASI			RASI			LPSI			RPSI			RTH1			RTH3			LTH1			LTH2			LTH3			RTB1			RTB2			RTB3			LTB1			LTB2			LTB3			RCAL			RTOE			RMT5			LCAL			LTOE			LMT5			LACR			RACR			CLAV			C7			RUA1			RUA2			RUA3			RLEL			RMEL			LUA1			LUA2			LUA3			LLEL			LMEL			RFAsuperior			RFAradius			RFAulna			LFAsuperior			LFAradius			LFAulna			
		X1	Y1	Z1	X2	Y2	Z2	X3	Y3	Z3	X4	Y4	Z4	X5	Y5	Z5	X6	Y6	Z6	X7	Y7	Z7	X8	Y8	Z8	X9	Y9	Z9	X10	Y10	Z10	X11	Y11	Z11	X12	Y12	Z12	X13	Y13	Z13	X14	Y14	Z14	X15	Y15	Z15	X16	Y16	Z16	X17	Y17	Z17	X18	Y18	Z18	X19	Y19	Z19	X20	Y20	Z20	X21	Y21	Z21	X22	Y22	Z22	X23	Y23	Z23	X24	Y24	Z24	X25	Y25	Z25	X26	Y26	Z26	X27	Y27	Z27	X28	Y28	Z28	X29	Y29	Z29	X30	Y30	Z30	X31	Y31	Z31	X32	Y32	Z32	X33	Y33	Z33	X34	Y34	Z34	X35	Y35	Z35	X36	Y36	Z36	X37	Y37	Z37	X38	Y38	Z38	X39	Y39	Z39	X40	Y40	Z40	X41	Y41	Z41	

127	1.391667	970.774843	1023.591898	-439.020971	995.539857	995.646317	-215.239061	816.741742	1050.379417	-362.275045	825.5926899999999	1051.551236	-266.200212	895.195168	838.02153	-153.208105	787.576599	595.668315	-195.579842	969.9788600000001	834.642027	-496.497668	1061.077837	755.033373	-470.648178	1044.366781	632.266763	-432.188365	626.745176	458.583772	-252.119482	565.780684	494.72832	-187.891855	500.902564	470.228593	-249.081109	1163.413756	444.470534	-343.452473	1142.734765	357.102712	-412.035122	1187.310308	277.284545	-331.504727	350.251396	572.092192	-240.313921	291.955279	370.888463	-275.679781	272.768948	393.445881	-182.974295	1130.215781	100.638833	-320.561535	1315.603164	192.842194	-292.031387	1322.519098	154.860116	-375.159316	904.704247	1477.749498	-500.085148	974.7692500000001	1469.604469	-123.960373	1001.820723	1459.313096	-303.281817	876.519444	1519.812162	-315.883744	931.433447	1340.921058	-61.197589	855.783896	1339.191482	-60.029134	899.452627	1267.281734	-22.72937	869.713815	1201.181906	-1.395012	821.910004	1184.049098	-67.961473	801.480215	1394.417503	-553.829149	729.442157	1378.474802	-524.400979	760.457057	1318.410251	-572.276065	682.79489	1274.62765	-588.072884	663.232049	1274.769561	-503.61397	967.199214	1148.055306	-64.346543	1030.09995	1107.867532	-161.984225	1024.420988	1052.414502	-118.807027	768.790513	1177.005863	-587.564083	859.680683	1114.898471	-517.100112	832.681476	1080.302982	-570.354107	
128	1.4	969.398582	1017.767287	-439.695445	996.684889	989.422612	-216.504793	816.134261	1043.37127	-361.87084	825.993303	1043.706087	-265.175814	899.2739769999999	829.808858	-152.578261	798.6233580000001	585.38008	-193.2459	968.199705	828.7265169999999	-495.233698	1059.473118	750.5492839999999	-468.927805	1041.683851	625.913826	-431.913554	639.889284	456.500182	-248.734283	581.436766	497.021086	-185.964304	515.808529	477.99406	-247.429913	1155.557837	434.693025	-342.144093	1132.199814	347.607951	-410.321888	1175.061568	266.957919	-329.588374	372.38416	590.528314	-242.026927	302.440323	391.911612	-270.772817	286.322503	418.095314	-178.085344	1112.638733	95.30338399999999	-317.13501	1301.068835	178.625588	-290.093588	1306.286698	138.745886	-372.579648	907.7432700000001	1471.021248	-501.884604	974.526188	1463.523302	-124.825882	1002.658361	1452.799039	-303.831155	877.8861889999999	1514.334335	-317.802301	928.937182	1335.7431	-62.156514	853.299274	1335.791344	-61.605315	895.394446	1262.272401	-24.792076	863.842755	1197.328233	-2.242432	816.865795	1180.578962	-69.35803300000001	805.235625	1385.690012	-556.045723	733.080965	1369.154371	-527.539472	765.6965740000001	1308.680005	-574.328738	688.252106	1264.431736	-590.458164	668.040808	1264.681102	-505.795929	959.745423	1138.533934	-62.452834	1022.365027	1092.466487	-157.847541	1013.581676	1038.619366	-113.189194	775.028408	1167.417761	-589.828747	866.823289	1106.644302	-519.204078	839.914177	1071.775683	-572.334664	
129	1.408333	967.738755	1011.38022	-440.040594	997.328797	982.377221	-217.14014	815.427709	1035.561108	-361.096619	825.940423	1035.079058	-263.518267	902.226828	821.450566	-152.014121	810.141939	575.139102	-190.662783	966.073038	822.633524	-494.14631	1058.04106	746.27967	-467.150849	1039.321001	618.611551	-432.601842	654.598492	453.763521	-245.051693	598.5939550000001	498.93276	-183.592917	532.384313	484.155454	-244.789364	1147.54673	423.731055	-341.339892	1119.60352	337.253762	-408.574203	1161.752572	255.822612	-327.733453	396.224784	606.6197969999999	-243.8301	316.626467	410.829545	-266.230525	302.871445	440.229089	-173.929229	1092.84645	92.782262	-314.210134	1284.712338	160.692481	-286.700402	1287.946788	119.988405	-368.882433	910.904001	1463.350913	-503.703884	973.898236	1456.692203	-125.470751	1003.49859	1445.693335	-304.372789	879.274757	1507.941374	-319.6257	925.98631	1329.618122	-63.204126	850.451758	1331.631269	-63.063436	890.7277319999999	1256.416937	-27.12527	857.274238	1192.843977	-3.235898	811.113434	1176.478507	-70.896213	809.271834	1375.957731	-558.485015	736.865406	1358.784443	-531.156078	771.003781	1298.077908	-576.69721	694.02925	1253.272649	-593.297521	672.940794	1253.591352	-508.675357	951.3504380000001	1128.267042	-60.337914	1013.396008	1076.368835	-153.121606	1001.432917	1024.296867	-107.125603	781.698498	1157.034884	-592.22487	874.262627	1097.871431	-521.0501420000001	847.7628560000001	1062.611581	-574.088653	
130	1.416667	965.699955	1004.450428	-440.186583	996.759667	974.466721	-217.346287	814.26136	1027.021333	-360.106225	824.701454	1025.650907	-261.605106	904.41539	812.898688	-151.665524	822.247827	565.0476190000001	-187.809036	963.5142489999999	815.870218	-493.68888	1056.281696	741.108736	-466.392277	1036.651101	610.503541	-433.485021	670.762023	450.452875	-241.211119	617.278994	500.313069	-180.966738	550.490753	488.751257	-241.526505	1140.043537	412.475858	-340.653424	1106.281301	326.716377	-406.000564	1147.852086	244.697951	-324.892451	421.469138	620.289667	-245.479476	333.843711	427.507321	-262.232618	321.917143	459.654161	-170.492346	1071.429879	93.149362	-310.593682	1266.997979	139.710523	-281.768305	1267.441701	100.474598	-364.406916	914.232589	1454.842267	-505.575719	972.7681239999999	1449.227266	-125.836346	1004.362096	1438.090487	-304.857196	880.479902	1500.683669	-321.380836	922.454623	1322.610894	-64.275913	847.147633	1326.650348	-64.366562	885.333528	1249.749478	-29.646461	850.002983	1187.769198	-4.381692	804.691288	1171.781436	-72.602277	813.588357	1365.314943	-561.145968	740.8075679999999	1347.438087	-535.130552	776.377831	1286.72518	-579.297336	700.1267329999999	1241.268743	-596.521992	677.957662	1241.605232	-512.174045	942.039883	1117.358319	-57.982053	1003.180713	1059.721253	-147.834264	988.007354	1009.585562	-100.651292	788.839618	1145.989804	-594.639101	881.981866	1088.738443	-522.507199	856.239102	1052.953883	-575.487477	
131	1.425	963.119749	997.016173	-440.566777	994.857844	965.858031	-217.560749	812.198751	1018.048929	-359.036203	822.081826	1015.482533	-259.857328	906.55569	804.113502	-151.647051	835.172164	555.134212	-184.526722	960.4613409999999	808.352268	-494.170913	1053.761619	734.157282	-467.373687	1032.983055	602.210591	-433.584782	688.265553	446.645	-237.349657	637.375438	500.840128	-178.282057	570.091534	491.939236	-238.14473	1133.266016	402.355794	-339.36853	1094.215357	317.29045	-402.228358	1133.306381	234.825721	-320.450732	448.048132	631.406332	-246.760906	353.323584	441.872827	-258.908909	343.122237	476.20334	-167.703479	1048.427576	95.613719	-305.649999	1247.489626	118.156079	-275.71626	1244.404919	83.23889800000001	-359.792899	917.755038	1445.708945	-507.572838	971.048736	1441.34449	-125.835829	1005.265648	1430.167119	-305.189167	881.353793	1492.839583	-323.152592	918.246492	1314.916105	-65.271852	843.268062	1320.900948	-65.53922799999999	879.133151	1242.399893	-32.188151	842.050941	1182.209135	-5.664317	797.6379889999999	1166.587289	-74.46606199999999	818.20014	1353.866706	-564.011629	744.94447	1335.227542	-539.385916	781.907835	1274.701691	-582.099336	706.567932	1228.595649	-600.072467	683.162646	1228.928591	-516.125597	931.822345	1105.964932	-55.364725	991.709325	1042.670224	-142.037871	973.347455	994.690596	-93.742068	796.503208	1134.450458	-596.953198	890.039366	1079.518678	-523.505024	865.368907	1043.01403	-576.397825	
132	1.433333	959.873276	989.353121	-441.465493	992.163424	957.0780119999999	-218.010186	808.99353	1009.159645	-357.825944	818.524261	1004.876918	-258.42763	909.394364	795.253366	-151.875604	849.1829310000001	545.512659	-180.66379	956.878002	800.742859	-495.477478	1050.235036	725.480228	-469.839605	1028.208783	594.715406	-432.522252	707.074865	442.50277	-233.62187	658.657495	500.278592	-175.631166	591.171507	493.876126	-234.997919	1126.68093	394.754445	-336.899043	1084.617719	310.389388	-397.777728	1117.57531	227.461635	-314.874567	475.836507	639.834109	-247.543016	374.4398	453.786961	-256.256173	366.179544	489.663289	-165.465032	1023.420757	99.030776	-299.852322	1225.113834	99.492987	-269.461916	1218.470237	70.98879599999999	-355.706207	921.4437380000001	1436.249702	-509.757623	968.690253	1433.332882	-125.420286	1006.209187	1422.219942	-305.278788	881.9731829999999	1484.914397	-325.047769	913.2950520000001	1306.865935	-66.118876	838.664259	1314.520221	-66.70121399999999	872.131074	1234.617122	-34.526445	833.455968	1176.307634	-7.093534	789.976325	1161.039203	-76.487043	823.178993	1341.70978	-567.009629	749.346785	1322.289373	-543.944105	787.749719	1262.046317	-585.081281	713.435736	1215.407824	-603.8962299999999	688.676993	1215.771895	-520.377541	920.684239	1094.277032	-52.504121	978.9927269999999	1025.414654	-135.790896	957.485821	979.887821	-86.383466	804.784235	1122.608446	-599.063165	898.544517	1070.484039	-524.000918	875.1906729999999	1033.01756	-576.704983	
